<svg width="961" height="1056" viewBox="0 0 961 1056" fill="none" xmlns="http://www.w3.org/2000/svg">
<path d="M450.942 540.586C455.264 527.589 470.144 521.815 481.897 528.6L485.094 530.446C496.492 537.026 499.551 552.338 491.585 562.878C480.538 577.497 467.346 595.035 466.539 596.49C465.732 597.945 457.785 618.511 451.187 635.699C446.431 648.091 431.987 653.3 420.589 646.72L417.391 644.874C405.638 638.089 402.83 622.104 411.527 611.633C423.176 597.608 436.74 581.174 437.532 579.745C438.325 578.317 445.153 557.993 450.942 540.586Z" fill="#8E8585"/>
<g filter="url(#filter0_di_2_727)">
<path d="M769.078 465.065C711.845 568.232 579.782 602.412 474.108 541.408C368.434 480.404 329.165 347.317 386.398 244.15C443.632 140.983 575.695 106.803 681.369 167.807C787.043 228.811 826.312 361.898 769.078 465.065Z" fill="#7C898D"/>
</g>
<path d="M387.996 606.282C393.821 595.783 406.919 592.107 417.252 598.072L458.942 622.139C469.275 628.104 472.929 641.451 467.105 651.95L328.337 902.088C322.512 912.587 309.414 916.263 299.081 910.298L257.391 886.231C247.058 880.266 243.404 866.919 249.228 856.42L387.996 606.282Z" fill="#494747"/>
<g filter="url(#filter1_i_2_727)">
<path d="M751.043 453.911C699.202 547.358 579.257 578.129 483.138 522.641C387.019 467.153 351.125 346.418 402.966 252.972C454.807 159.525 574.752 128.753 670.871 184.241C766.99 239.729 802.884 360.465 751.043 453.911Z" fill="#F4F5F5"/>
</g>
<g filter="url(#filter2_f_2_727)">
<path d="M405.85 599.516C408.166 595.309 413.401 593.822 417.541 596.194L429.674 603.145C433.814 605.518 435.293 610.852 432.977 615.059L286.306 881.456C283.989 885.663 278.755 887.151 274.614 884.778L262.481 877.827C258.341 875.454 256.862 870.12 259.178 865.913L405.85 599.516Z" fill="#8A8585"/>
</g>
<g filter="url(#filter3_f_2_727)">
<path d="M449.208 627.812C450.626 625.238 453.829 624.328 456.363 625.779V625.779C458.897 627.231 459.801 630.495 458.384 633.07L308.457 905.379C307.04 907.954 303.837 908.864 301.303 907.412V907.412C298.769 905.96 297.864 902.696 299.282 900.122L449.208 627.812Z" fill="#ACACAC"/>
</g>
<path d="M510.214 184.523C462.766 201.409 401.966 272.802 470.777 235.173C539.589 197.544 543.177 212.015 592.476 201.588C641.775 191.16 557.662 167.637 510.214 184.523Z" fill="#FFFCFC" fill-opacity="0.71"/>
<path d="M641.364 202.261C640.699 206.621 634.643 209.264 627.839 208.166C621.035 207.067 616.059 202.641 616.724 198.281C617.39 193.921 623.445 191.277 630.249 192.376C637.053 193.475 642.029 197.9 641.364 202.261Z" fill="#FFFEFE"/>
<g filter="url(#filter4_f_2_727)">
<path d="M460.529 542.689C462.228 538.202 467.444 536.302 471.571 538.667V538.667C475.431 540.879 476.712 545.915 474.385 549.737L452.466 585.75L443.354 605.761C441.527 609.773 436.68 611.274 432.95 608.983V608.983C428.957 606.53 428.189 600.961 431.368 597.507L444.507 583.231C445.26 582.413 445.85 581.455 446.246 580.409L460.529 542.689Z" fill="#CEC1C1"/>
</g>
<g filter="url(#filter5_f_2_727)">
<path d="M485.977 550.482C486.683 549.186 486.196 547.548 484.9 546.862V546.862C483.618 546.183 482.041 546.702 481.397 548.014L460.723 590.091L448.066 613.577C447.325 614.95 447.933 616.678 449.364 617.266V617.266C450.636 617.788 452.083 617.204 452.654 615.938L463.767 591.286L485.977 550.482Z" fill="#CEC1C1"/>
</g>
<g filter="url(#filter6_d_2_727)">
<path d="M689.442 361.944C680.396 378.771 661.026 387.618 646.178 381.705C631.33 375.793 626.626 357.359 635.671 340.532C644.717 323.706 664.087 314.859 678.935 320.772C693.784 326.684 698.487 345.118 689.442 361.944Z" fill="#F0B5B5"/>
<path d="M642.94 300.072C637.232 320.027 618.534 333.202 601.176 329.499C583.819 325.796 574.376 306.616 580.084 286.661C585.792 266.705 604.49 253.53 621.848 257.233C639.205 260.937 648.648 280.116 642.94 300.072Z" fill="#F0B5B5"/>
<path d="M560.574 285.24C569.192 304.452 562.66 324.46 545.985 329.93C529.309 335.4 508.804 324.26 500.186 305.048C491.567 285.836 498.099 265.827 514.775 260.357C531.45 254.888 551.955 266.028 560.574 285.24Z" fill="#F0B5B5"/>
<path d="M505.732 335.561C519.651 349.798 520.794 368.633 508.285 377.631C495.776 386.629 474.352 382.382 460.433 368.145C446.514 353.909 445.371 335.073 457.88 326.075C470.389 317.078 491.813 321.324 505.732 335.561Z" fill="#F0B5B5"/>
<path d="M572.337 352.557C522.835 357.571 465.707 460.216 522.039 450.968C578.371 441.72 575.449 442.564 630.865 451.147C686.282 459.73 621.84 347.544 572.337 352.557Z" fill="#F0B5B5"/>
<path opacity="0.7" d="M505.662 277.826C502.87 287.765 509.027 306.81 510.505 290.73C511.984 274.65 515.276 275.895 519.57 266.471C523.864 257.047 508.454 267.887 505.662 277.826Z" fill="#FCECEC"/>
<path opacity="0.7" d="M453.285 341.834C451.661 351.917 459.971 369.975 459.582 353.996C459.194 338.017 462.605 338.881 465.779 329.141C468.953 319.4 454.909 331.752 453.285 341.834Z" fill="#FCECEC"/>
<path opacity="0.7" d="M595.767 270.374C589.259 278.59 587.463 298.697 595.173 284.252C602.883 269.807 605.446 272.218 613.144 265.052C620.842 257.886 602.275 262.158 595.767 270.374Z" fill="#FCECEC"/>
<path opacity="0.7" d="M652.929 331.337C643.65 338.292 635.415 358.3 647.906 345.283C660.398 332.266 662.256 335.252 672.419 329.613C682.583 323.974 662.208 324.382 652.929 331.337Z" fill="#FCECEC"/>
<path opacity="0.7" d="M541.397 373.631C526.36 385.137 509.676 412.865 530.8 392.749C551.925 372.634 553.88 375.873 569.873 365.775C585.866 355.677 556.434 362.125 541.397 373.631Z" fill="#FCECEC"/>
</g>
<defs>
<filter id="filter0_di_2_727" x="356.095" y="137.559" width="443.286" height="442.098" filterUnits="userSpaceOnUse" color-interpolation-filters="sRGB">
<feFlood flood-opacity="0" result="BackgroundImageFix"/>
<feColorMatrix in="SourceAlpha" type="matrix" values="0 0 0 0 0 0 0 0 0 0 0 0 0 0 0 0 0 0 127 0" result="hardAlpha"/>
<feOffset dy="4"/>
<feGaussianBlur stdDeviation="2"/>
<feComposite in2="hardAlpha" operator="out"/>
<feColorMatrix type="matrix" values="0 0 0 0 0 0 0 0 0 0 0 0 0 0 0 0 0 0 0.25 0"/>
<feBlend mode="normal" in2="BackgroundImageFix" result="effect1_dropShadow_2_727"/>
<feBlend mode="normal" in="SourceGraphic" in2="effect1_dropShadow_2_727" result="shape"/>
<feColorMatrix in="SourceAlpha" type="matrix" values="0 0 0 0 0 0 0 0 0 0 0 0 0 0 0 0 0 0 127 0" result="hardAlpha"/>
<feOffset dy="4"/>
<feGaussianBlur stdDeviation="2"/>
<feComposite in2="hardAlpha" operator="arithmetic" k2="-1" k3="1"/>
<feColorMatrix type="matrix" values="0 0 0 0 0 0 0 0 0 0 0 0 0 0 0 0 0 0 0.21 0"/>
<feBlend mode="normal" in2="shape" result="effect2_innerShadow_2_727"/>
</filter>
<filter id="filter1_i_2_727" x="379.228" y="156.63" width="395.553" height="397.624" filterUnits="userSpaceOnUse" color-interpolation-filters="sRGB">
<feFlood flood-opacity="0" result="BackgroundImageFix"/>
<feBlend mode="normal" in="SourceGraphic" in2="BackgroundImageFix" result="shape"/>
<feColorMatrix in="SourceAlpha" type="matrix" values="0 0 0 0 0 0 0 0 0 0 0 0 0 0 0 0 0 0 127 0" result="hardAlpha"/>
<feOffset dy="4"/>
<feGaussianBlur stdDeviation="2"/>
<feComposite in2="hardAlpha" operator="arithmetic" k2="-1" k3="1"/>
<feColorMatrix type="matrix" values="0 0 0 0 0.589531 0 0 0 0 0.850609 0 0 0 0 0.9625 0 0 0 0.25 0"/>
<feBlend mode="normal" in2="shape" result="effect1_innerShadow_2_727"/>
</filter>
<filter id="filter2_f_2_727" x="248.583" y="585.565" width="194.988" height="309.843" filterUnits="userSpaceOnUse" color-interpolation-filters="sRGB">
<feFlood flood-opacity="0" result="BackgroundImageFix"/>
<feBlend mode="normal" in="SourceGraphic" in2="BackgroundImageFix" result="shape"/>
<feGaussianBlur stdDeviation="4.75" result="effect1_foregroundBlur_2_727"/>
</filter>
<filter id="filter3_f_2_727" x="289.112" y="615.588" width="179.442" height="302.015" filterUnits="userSpaceOnUse" color-interpolation-filters="sRGB">
<feFlood flood-opacity="0" result="BackgroundImageFix"/>
<feBlend mode="normal" in="SourceGraphic" in2="BackgroundImageFix" result="shape"/>
<feGaussianBlur stdDeviation="4.75" result="effect1_foregroundBlur_2_727"/>
</filter>
<filter id="filter4_f_2_727" x="419.897" y="528.145" width="65.1504" height="91.4152" filterUnits="userSpaceOnUse" color-interpolation-filters="sRGB">
<feFlood flood-opacity="0" result="BackgroundImageFix"/>
<feBlend mode="normal" in="SourceGraphic" in2="BackgroundImageFix" result="shape"/>
<feGaussianBlur stdDeviation="4.75" result="effect1_foregroundBlur_2_727"/>
</filter>
<filter id="filter5_f_2_727" x="438.249" y="537.064" width="57.5518" height="89.8931" filterUnits="userSpaceOnUse" color-interpolation-filters="sRGB">
<feFlood flood-opacity="0" result="BackgroundImageFix"/>
<feBlend mode="normal" in="SourceGraphic" in2="BackgroundImageFix" result="shape"/>
<feGaussianBlur stdDeviation="4.75" result="effect1_foregroundBlur_2_727"/>
</filter>
<filter id="filter6_d_2_727" x="429.082" y="248.272" width="282.934" height="213.598" filterUnits="userSpaceOnUse" color-interpolation-filters="sRGB">
<feFlood flood-opacity="0" result="BackgroundImageFix"/>
<feColorMatrix in="SourceAlpha" type="matrix" values="0 0 0 0 0 0 0 0 0 0 0 0 0 0 0 0 0 0 127 0" result="hardAlpha"/>
<feOffset dy="4"/>
<feGaussianBlur stdDeviation="3"/>
<feComposite in2="hardAlpha" operator="out"/>
<feColorMatrix type="matrix" values="0 0 0 0 1 0 0 0 0 0.783333 0 0 0 0 0.783333 0 0 0 0.96 0"/>
<feBlend mode="normal" in2="BackgroundImageFix" result="effect1_dropShadow_2_727"/>
<feBlend mode="normal" in="SourceGraphic" in2="effect1_dropShadow_2_727" result="shape"/>
</filter>
</defs>
</svg>
